<?xml version="1.0" standalone="no"?>
<!DOCTYPE svg PUBLIC "-//W3C//DTD SVG 20010904//EN"
 "http://www.w3.org/TR/2001/REC-SVG-20010904/DTD/svg10.dtd">
<svg version="1.0" xmlns="http://www.w3.org/2000/svg"
 width="1280.000000pt" height="1004.000000pt" viewBox="0 0 1280.000000 1004.000000"
 preserveAspectRatio="xMidYMid meet">
<g transform="translate(0.000000,1004.000000) scale(0.100000,-0.100000)"
fill="#000000" stroke="none">
<path d="M4870 10030 c-19 -5 -80 -16 -135 -24 -145 -21 -251 -58 -339 -117
-131 -87 -220 -209 -250 -340 -22 -94 -15 -874 8 -1079 49 -416 118 -690 257
-1020 27 -63 49 -124 49 -135 0 -11 -22 -51 -48 -89 l-47 -68 -815 -440 c-448
-242 -818 -443 -822 -446 -4 -4 -32 -92 -63 -197 -176 -595 -222 -872 -241
-1455 l-7 -205 -112 -225 c-120 -240 -203 -423 -231 -511 -11 -36 -17 -91 -18
-164 l-2 -110 -51 -103 c-29 -57 -91 -156 -139 -220 -136 -183 -170 -273 -199
-535 -16 -139 -17 -143 -61 -214 -25 -40 -49 -75 -54 -78 -6 -3 -49 10 -97 29
-127 50 -182 57 -373 50 -232 -9 -287 -1 -675 101 -110 28 -212 49 -262 52
l-82 6 -31 -33 c-16 -18 -30 -39 -30 -46 0 -32 61 -132 107 -175 79 -74 157
-103 387 -144 137 -25 166 -46 166 -122 0 -38 -1 -40 -144 -140 -194 -137
-339 -255 -381 -310 -64 -84 -36 -151 66 -161 43 -4 62 0 119 28 l67 32 84
-38 c77 -35 91 -38 164 -37 53 1 121 12 200 32 91 24 158 34 275 41 201 12
268 18 419 36 231 27 319 60 414 152 53 52 61 57 100 56 23 -1 156 -32 294
-68 l253 -67 80 51 c98 64 172 143 199 214 11 29 29 116 41 192 38 255 53 295
222 594 135 237 211 408 287 644 27 86 53 161 57 167 14 23 22 -15 18 -80 -2
-36 -9 -167 -14 -291 -13 -279 -33 -510 -67 -795 -18 -148 -27 -272 -27 -380
-1 -153 0 -162 26 -217 43 -92 108 -130 261 -152 58 -8 83 -16 85 -26 1 -8
-103 -332 -233 -719 -129 -388 -234 -706 -232 -707 3 -2 4147 -24 4584 -24
l352 0 -5 68 c-11 146 -37 283 -77 402 -48 148 -188 428 -367 739 -83 145
-120 218 -114 227 5 6 56 51 112 100 178 149 291 302 327 439 21 83 19 239 -5
350 -11 50 -47 169 -81 265 -33 96 -85 245 -114 330 -68 198 -88 301 -88 455
1 142 39 355 63 355 5 0 69 -88 141 -196 198 -295 320 -445 447 -545 164 -132
303 -182 615 -224 38 -5 60 -17 115 -63 37 -32 74 -63 84 -70 14 -11 47 4 234
109 l219 122 620 499 c341 274 623 498 627 498 13 0 17 -37 28 -250 6 -113 14
-208 18 -211 7 -6 868 113 895 124 12 5 11 23 -10 124 -52 258 -133 699 -133
730 0 30 5 35 58 62 100 51 129 91 110 157 -21 77 -83 111 -154 84 -35 -14
-54 2 -54 44 1 28 10 37 108 103 167 113 252 196 252 247 0 27 -52 77 -112
107 l-59 30 7 73 c12 136 -9 177 -139 262 l-71 47 64 56 c177 151 205 200 138
241 -17 10 -50 22 -72 26 -67 10 -69 18 -34 87 62 125 146 235 372 492 197
223 291 359 382 550 165 347 251 876 206 1260 -39 332 -121 579 -261 790 -66
101 -238 269 -351 344 -321 214 -707 323 -1140 323 -316 0 -545 -50 -785 -170
-408 -203 -661 -555 -769 -1067 -39 -190 -107 -747 -93 -762 3 -2 192 -10 419
-17 228 -7 419 -16 426 -20 13 -8 18 20 27 139 40 521 176 787 487 954 96 52
231 90 343 97 284 18 547 -150 692 -441 111 -221 122 -453 34 -694 -56 -154
-139 -293 -365 -609 -427 -599 -516 -818 -542 -1335 -4 -76 -10 -140 -14 -142
-5 -3 -27 2 -50 10 -92 32 -112 15 -129 -109 -22 -155 -61 -265 -171 -471 -51
-97 -62 -129 -95 -275 -39 -170 -52 -332 -32 -406 l9 -31 -208 -114 c-274
-150 -305 -162 -419 -163 -103 -1 -166 16 -361 96 l-122 49 -87 152 c-125 218
-145 246 -289 400 l-129 139 18 78 c39 173 8 257 -176 472 l-57 66 5 59 c15
176 -81 369 -444 894 l-115 166 -784 313 -784 314 -50 103 c-72 148 -129 203
-285 277 -66 32 -131 63 -145 70 -22 10 -25 18 -25 61 l0 49 39 8 c54 11 100
49 125 101 57 118 104 425 82 542 -15 81 -36 100 -109 100 l-57 0 -6 210 c-13
415 -89 713 -232 900 -80 105 -193 174 -353 213 -106 27 -132 31 -297 47 -225
23 -250 24 -287 15z"/>
</g>
</svg>
